HIERARCHY
ROOT Hips
{
 OFFSET 0.000000 0.000000 0.000000
 CHANNELS 6 Xposition Yposition Zposition Yrotation Xrotation Zrotation
 JOINT Chest
 {
  OFFSET 0.000000 9.585900 0.002600
  CHANNELS 3 Yrotation Xrotation Zrotation
  JOINT Chest2
  {
   OFFSET 0.000000 9.601200 -0.005300
   CHANNELS 3 Yrotation Xrotation Zrotation
   JOINT Chest3
   {
    OFFSET 0.000000 9.561800 0.000000
    CHANNELS 3 Yrotation Xrotation Zrotation
    JOINT Chest4
    {
     OFFSET 0.000000 9.552100 0.000000
     CHANNELS 3 Yrotation Xrotation Zrotation
     JOINT Neck
     {
      OFFSET 0.000000 14.453000 0.000000
      CHANNELS 3 Yrotation Xrotation Zrotation
      JOINT Head
      {
       OFFSET 0.000000 8.936500 -0.011300
       CHANNELS 3 Yrotation Xrotation Zrotation
       End Site
       {
        OFFSET 0.000000 17.073600 -0.006000
       }
      }
     }
     JOINT RightCollar
     {
      OFFSET -2.921100 9.558500 0.000000
      CHANNELS 3 Yrotation Xrotation Zrotation
      JOINT RightShoulder
      {
       OFFSET -13.519700 0.000000 0.000000
       CHANNELS 3 Yrotation Xrotation Zrotation
       JOINT RightElbow
       {
        OFFSET 0.000000 -29.696600 0.000000
        CHANNELS 3 Yrotation Xrotation Zrotation
        JOINT RightWrist
        {
         OFFSET 0.000000 -24.004700 0.000000
         CHANNELS 3 Yrotation Xrotation Zrotation
         End Site
         {
          OFFSET 0.000000 -17.728500 0.000000
         }
        }
       }
      }
     }
     JOINT LeftCollar
     {
      OFFSET 2.921100 9.558500 0.000000
      CHANNELS 3 Yrotation Xrotation Zrotation
      JOINT LeftShoulder
      {
       OFFSET 13.519700 0.000000 0.000000
       CHANNELS 3 Yrotation Xrotation Zrotation
       JOINT LeftElbow
       {
        OFFSET 0.000000 -29.696600 0.000000
        CHANNELS 3 Yrotation Xrotation Zrotation
        JOINT LeftWrist
        {
         OFFSET 0.000000 -24.004700 0.000000
         CHANNELS 3 Yrotation Xrotation Zrotation
         End Site
         {
          OFFSET 0.000000 -17.728500 0.000000
         }
        }
       }
      }
     }
    }
   }
  }
 }
 JOINT RightHip
 {
  OFFSET -7.771700 -0.012900 -0.001300
  CHANNELS 3 Yrotation Xrotation Zrotation
  JOINT RightKnee
  {
   OFFSET 0.000000 -40.869800 0.001200
   CHANNELS 3 Yrotation Xrotation Zrotation
   JOINT RightAnkle
   {
    OFFSET 0.000000 -39.717900 0.002100
    CHANNELS 3 Yrotation Xrotation Zrotation
    JOINT RightToe
    {
     OFFSET 0.000000 -4.965400 11.033500
     CHANNELS 3 Yrotation Xrotation Zrotation
     End Site
     {
      OFFSET 0.000000 -1.423100 5.872300
     }
    }
   }
  }
 }
 JOINT LeftHip
 {
  OFFSET 7.771700 -0.012900 -0.001300
  CHANNELS 3 Yrotation Xrotation Zrotation
  JOINT LeftKnee
  {
   OFFSET 0.000000 -40.869800 0.001200
   CHANNELS 3 Yrotation Xrotation Zrotation
   JOINT LeftAnkle
   {
    OFFSET 0.000000 -39.717900 0.002100
    CHANNELS 3 Yrotation Xrotation Zrotation
    JOINT LeftToe
    {
     OFFSET 0.000000 -4.965400 11.033500
     CHANNELS 3 Yrotation Xrotation Zrotation
     End Site
     {
      OFFSET 0.000000 -1.423100 5.872300
     }
    }
   }
  }
 }
}
MOTION
Frames: 9
Frame Time: 0.008333
0.000000 85.388000 0.000000 0.000000 -5.767877 0.000000 0.000000 11.653817 0.000000 0.000000 -5.885947 0.000000 0.000000 -0.000000 0.000000 0.000000 -0.000000 0.000000 0.000000 12.528835 0.000000 0.000000 0.711642 0.000000 0.000000 -0.000000 0.000000 0.000000 0.000000 -90.000000 0.000000 -2.309062 0.000000 0.000000 2.309062 0.000000 0.000000 -0.000000 0.000000 0.000000 -0.000000 90.000000 0.000000 -2.309062 0.000000 0.000000 2.309062 0.000000 0.000000 8.520406 0.000000 0.000000 1.905762 0.000000 -0.000000 -4.658285 0.000000 0.000000 -0.000000 0.000000 0.000000 8.520406 0.000000 0.000000 1.905762 0.000000 -0.000000 -4.658285 0.000000 0.000000 -0.000000 0.000000
-45.465900 54.982422 44.702891 179.907424 -32.590921 -10.524940 0.032628 16.634196 7.804477 -0.362828 9.472038 3.422953 -0.403147 11.746236 4.226357 -0.361263 9.458448 3.435635 15.254218 21.798528 -4.739530 18.938690 -0.660949 -9.046035 1.060086 5.956138 -2.980897 -18.697855 -7.654637 3.975372 33.044934 -78.678122 -16.809264 12.626258 -6.614120 -18.412665 -13.829930 0.558559 -5.899722 -13.709681 -22.937320 12.288266 -109.011948 -26.359398 116.072179 -2.816158 -45.824254 28.626589 -14.789464 -36.227857 4.593718 7.231015 85.870478 1.589495 -0.395494 -11.349344 6.860143 -0.106576 0.066876 -0.201254 -12.539809 -46.235732 14.606423 171.185963 79.759748 166.218703 -1.620232 -15.866696 3.046308 -0.555409 -1.950493 -0.247441
-45.472143 54.983397 44.713156 179.905801 -32.633188 -10.529632 0.023728 16.627555 7.784439 -0.362814 9.479824 3.416885 -0.394306 11.772575 4.232990 -0.378173 9.433357 3.392375 15.224194 21.773389 -4.702069 18.848693 -0.733149 -9.015088 1.067594 5.922039 -2.961564 -18.681327 -7.643639 4.010092 33.064469 -78.667951 -16.825628 12.620609 -6.624059 -18.420838 -13.851665 0.525805 -5.910199 -13.626751 -22.859594 12.194647 -109.031531 -26.549688 116.009165 -2.633212 -45.741356 28.428690 -14.786134 -36.214638 4.583393 7.271290 85.868805 1.621427 -0.386350 -11.237321 6.895326 -0.108559 0.090079 -0.190715 -12.518913 -46.193327 14.600398 171.204790 79.769365 166.238803 -1.628799 -15.863878 3.051208 -0.547637 -1.945695 -0.245730
-45.482646 54.980283 44.729791 179.905410 -32.639322 -10.514730 0.004022 16.583507 7.740689 -0.378008 9.453875 3.387848 -0.371069 11.835375 4.263716 -0.378657 9.436896 3.387956 15.156869 21.723059 -4.709130 18.785118 -0.784462 -8.976813 1.052487 5.854463 -2.980092 -18.662525 -7.628990 4.043596 33.130026 -78.657934 -16.880732 12.623314 -6.618153 -18.427319 -13.894524 0.437522 -5.952813 -13.517743 -22.743296 12.087029 -109.055922 -26.777089 115.928890 -2.427522 -45.633857 28.181227 -14.796255 -36.240289 4.560288 7.424437 85.862261 1.759254 -0.375544 -11.155909 6.911033 -0.118178 0.146019 -0.165213 -12.493793 -46.192612 14.576264 171.252241 79.789167 166.284436 -1.634669 -15.861663 3.056837 -0.537720 -1.928756 -0.241061
-45.494119 54.978832 44.743931 179.932978 -32.663384 -10.511828 -0.030059 16.573328 7.700797 -0.374352 9.480991 3.397599 -0.402258 11.768770 4.198411 -0.364903 9.479736 3.408477 15.109432 21.683239 -4.682202 18.713083 -0.838327 -8.929132 1.052968 5.806077 -2.976252 -18.645072 -7.610798 4.071956 33.152162 -78.632894 -16.890494 12.638650 -6.631146 -18.438946 -13.924557 0.380359 -5.974852 -13.386299 -22.598087 11.960550 -109.085897 -27.050470 115.834464 -2.193246 -45.494025 27.866241 -14.812399 -36.254114 4.527152 7.364235 85.867419 1.681177 -0.358267 -11.026524 6.958116 -0.111090 0.089906 -0.185716 -12.479447 -46.165967 14.546518 171.305023 79.806588 166.334904 -1.673254 -15.884170 3.062825 -0.502909 -1.892838 -0.228074
-45.503141 54.981801 44.751612 179.967294 -32.732157 -10.527749 -0.049605 16.633648 7.691296 -0.393158 9.403938 3.346268 -0.400246 11.795357 4.200443 -0.381353 9.459338 3.374850 15.087096 21.674260 -4.602782 18.631920 -0.893633 -8.871092 1.070158 5.797619 -2.940117 -18.628263 -7.586763 4.094834 33.063222 -78.575009 -16.788861 12.669005 -6.683316 -18.461375 -13.955086 0.359412 -5.983298 -13.218279 -22.391994 11.822052 -109.120914 -27.375195 115.729694 -1.922367 -45.306351 27.459471 -14.824534 -36.209006 4.496014 7.285537 85.864771 1.586121 -0.339383 -10.906249 7.003399 -0.108425 0.038089 -0.204497 -12.472766 -46.088423 14.524528 171.388878 79.823902 166.410430 -1.672620 -15.887798 3.076124 -0.498762 -1.882451 -0.229143
-45.509601 54.983875 44.760434 179.989154 -32.787972 -10.550760 -0.067712 16.638997 7.673274 -0.400793 9.386678 3.328765 -0.402692 11.807567 4.197081 -0.391384 9.444209 3.354254 15.040158 21.653443 -4.541681 18.544937 -0.948148 -8.801833 1.075180 5.767621 -2.923761 -18.599928 -7.513524 4.103432 33.381153 -78.651123 -17.100661 12.656038 -6.631429 -18.454421 -13.999718 0.299645 -6.015002 -13.022902 -22.108061 11.675308 -109.163234 -27.756757 115.618970 -1.589235 -45.042385 26.923450 -14.834281 -36.168026 4.484862 7.218740 85.854179 1.508575 -0.324439 -10.811382 7.038937 -0.103407 0.053267 -0.199915 -12.476311 -46.024998 14.528708 171.432537 79.834427 166.450392 -1.682540 -15.893706 3.083649 -0.493068 -1.875230 -0.225309
-45.517106 54.983828 44.770632 179.998332 -32.822839 -10.557622 -0.097548 16.561697 7.613676 -0.398029 9.440508 3.344263 -0.411316 11.803070 4.184276 -0.398028 9.440522 3.344235 14.981841 21.625138 -4.485154 18.453077 -0.999859 -8.719525 1.077994 5.718047 -2.916026 -18.565485 -7.425611 4.105874 33.541626 -78.693009 -17.253535 12.650018 -6.618886 -18.463377 -14.043064 0.207329 -6.059637 -12.809771 -21.735270 11.533503 -109.210763 -28.213388 115.501106 -1.161741 -44.669883 26.208955 -14.843134 -36.155322 4.473854 6.838288 85.847644 1.112651 -0.287795 -10.719658 7.073038 -0.108060 0.125088 -0.172676 -12.464253 -45.983456 14.525560 171.477707 79.848000 166.492322 -1.699313 -15.910970 3.095964 -0.479716 -1.852851 -0.225010
-45.524816 54.982151 44.781563 179.996151 -32.840203 -10.553920 -0.101651 16.549722 7.594424 -0.415288 9.403411 3.318600 -0.424230 11.795468 4.169678 -0.408048 9.434377 3.332855 14.922765 21.602734 -4.416963 18.356807 -1.045650 -8.623149 1.086818 5.658476 -2.909378 -18.535660 -7.429833 4.104273 33.253128 -78.623522 -16.945486 12.643156 -6.623180 -18.480474 -14.074969 0.101035 -6.107566 -12.583697 -21.276862 11.411306 -109.256832 -28.779959 115.366310 -0.624391 -44.167499 25.264735 -14.857114 -36.165210 4.460735 6.601604 85.842913 0.862756 -0.251934 -10.632186 7.094743 -0.111774 0.157242 -0.160039 -12.449584 -45.965208 14.519932 171.493595 79.857058 166.505668 -1.707111 -15.919293 3.100837 -0.474069 -1.839417 -0.222471
